<svg width="37" height="37" viewBox="0 0 37 37" fill="none" xmlns="http://www.w3.org/2000/svg">
<g id="Binance logo" clip-path="url(#clip0_0_91)">
<g id="Group">
<path id="Vector" d="M11.8073 15.251L18.8566 8.20458L25.9088 15.2567L30.0082 11.1545L18.8566 0L7.70502 11.1516L11.8073 15.251Z" fill="#F3BA2F"/>
<path id="Vector_2" d="M0.704529 18.1494L4.80395 14.0471L8.90625 18.1494L4.80395 22.2488L0.704529 18.1494Z" fill="#F3BA2F"/>
<path id="Vector_3" d="M11.8073 21.0449L18.8566 28.0941L25.9088 21.042L30.011 25.1386L18.8595 36.293L7.70502 25.1472L11.8073 21.0449Z" fill="#F3BA2F"/>
<path id="Vector_4" d="M28.7983 18.1494L32.8978 14.0471L37.0001 18.1465L32.8978 22.2517L28.7983 18.1494Z" fill="#F3BA2F"/>
<path id="Vector_5" d="M23.0162 18.1466L18.8566 13.9841L15.7806 17.0601L15.4251 17.4127L14.697 18.1409L18.8566 22.2977L23.0162 18.1495V18.1466Z" fill="#F3BA2F"/>
</g>
</g>
<defs>
<clipPath id="clip0_0_91">
<rect width="36.2957" height="36.2957" fill="white" transform="translate(0.704315)"/>
</clipPath>
</defs>
</svg>
