<svg width="37" height="37" viewBox="0 0 37 37" fill="none" xmlns="http://www.w3.org/2000/svg">
<g id="Bitcoin logo" clip-path="url(#clip0_0_47)">
<path id="Vector" d="M35.7527 22.5483C33.3271 32.2495 23.4921 38.1782 13.7467 35.7526C4.04554 33.327 -1.88314 23.492 0.542437 13.7466C2.96801 4.04548 12.803 -1.8832 22.5484 0.542376C32.2495 2.96795 38.1782 12.8029 35.7527 22.5483Z" fill="#F7931A"/>
<path id="Vector_2" d="M26.1418 15.5431C26.5014 13.1181 24.6599 11.8154 22.1448 10.9624L22.9529 7.68448L20.977 7.19108L20.1689 10.38C19.6301 10.245 19.0914 10.1106 18.5526 10.0204L19.3608 6.83153L17.3849 6.33813L16.5768 9.61609C16.1276 9.52648 15.7233 9.43631 15.3195 9.3019L12.5803 8.62817L12.0415 10.739L13.4786 11.0985C14.2867 11.2783 14.4217 11.8171 14.4217 12.2668L13.4769 15.9928C13.5223 15.9928 13.6119 16.0382 13.7015 16.0382C13.6561 16.0382 13.5665 15.9928 13.4769 15.9928L12.1742 21.2024C12.0846 21.4269 11.8147 21.8262 11.2759 21.6957C11.2759 21.7411 9.83881 21.3362 9.83881 21.3362L8.85089 23.6274L11.4557 24.2512C11.9491 24.3862 12.3988 24.5206 12.8928 24.6107L12.0846 27.9341L14.0605 28.4275L14.8686 25.1495L16.4463 25.5601L15.6382 28.8381L17.614 29.3314L18.4222 26.0081C21.8351 26.632 24.3503 26.4125 25.4284 23.3143C26.2819 20.8445 25.383 19.4012 23.5869 18.4637C24.9344 18.1943 25.8781 17.3408 26.1469 15.5448L26.1418 15.5431ZM21.606 21.9646C20.9822 24.4344 16.8456 23.0875 15.4981 22.7727L16.5756 18.3719C17.9231 18.686 22.2344 19.3598 21.606 21.9646ZM22.2298 15.5425C21.6911 17.7883 18.188 16.6654 17.0651 16.3506L18.053 12.3536C19.1759 12.6678 22.8134 13.1617 22.2298 15.5425Z" fill="white"/>
</g>
<defs>
<clipPath id="clip0_0_47">
<rect width="36.2957" height="36.2957" fill="white"/>
</clipPath>
</defs>
</svg>
