<svg width="32" height="37" viewBox="0 0 32 37" fill="none" xmlns="http://www.w3.org/2000/svg">
<g id="Group 105">
<g id="Group 100">
<path id="Vector" d="M5.34351 18.8814C5.5366 18.6884 5.79849 18.5801 6.07149 18.5801H31.2604C31.7193 18.5801 31.9489 19.1349 31.6243 19.4592L26.6471 24.4325C26.454 24.6256 26.1921 24.734 25.9191 24.734H0.730185C0.27132 24.734 0.0416508 24.1791 0.366237 23.8547L5.34351 18.8814Z" fill="url(#paint0_linear_0_59)"/>
<path id="Vector_2" d="M5.34333 0.301357C5.53641 0.108391 5.7983 0 6.07131 0H31.2602C31.7191 0 31.9487 0.554867 31.6242 0.879223L26.6469 5.85253C26.4538 6.04546 26.1919 6.15386 25.9189 6.15386H0.730002C0.271137 6.15386 0.0414677 5.59905 0.366054 5.2747L5.34333 0.301357Z" fill="url(#paint1_linear_0_59)"/>
<path id="Vector_3" d="M26.6471 9.53229C26.454 9.33936 26.1921 9.23096 25.9191 9.23096H0.730185C0.27132 9.23096 0.0416508 9.78585 0.366237 10.1101L5.34351 15.0835C5.5366 15.2764 5.79849 15.3848 6.07149 15.3848H31.2604C31.7193 15.3848 31.9489 14.8299 31.6243 14.5056L26.6471 9.53229Z" fill="url(#paint2_linear_0_59)"/>
<path id="Vector_4" d="M1.49861 34.586H3.22264C3.46485 34.586 3.66111 34.785 3.66111 35.0306C3.66111 35.276 3.46485 35.4751 3.22264 35.4751H1.14315C1.11069 35.4751 1.07935 35.4868 1.05467 35.5083L0.426761 36.0528C0.330655 36.1362 0.388827 36.2958 0.515328 36.2958H3.11852C3.11956 36.2958 3.12043 36.2949 3.12043 36.2939C3.12043 36.2927 3.12138 36.2918 3.12257 36.2919C3.15527 36.2945 3.18844 36.2958 3.22185 36.2958C3.91237 36.2958 4.47218 35.7294 4.47218 35.0306C4.47218 34.367 3.96737 33.8228 3.32518 33.7696C3.32407 33.7695 3.32319 33.7686 3.32319 33.7675C3.32319 33.7663 3.32224 33.7653 3.32113 33.7653H1.46377C1.22164 33.7653 1.0253 33.5664 1.0253 33.3208C1.0253 33.0753 1.22164 32.8763 1.46377 32.8763H3.54041C3.57461 32.8763 3.60755 32.8632 3.63262 32.8397L4.21569 32.2952C4.30687 32.21 4.24743 32.0557 4.12339 32.0557H1.49861C1.49853 32.0557 1.49837 32.0557 1.49837 32.0558C1.49837 32.056 1.49829 32.0561 1.49813 32.0561C1.48702 32.0557 1.47583 32.0557 1.46456 32.0557C0.774045 32.0557 0.214233 32.6221 0.214233 33.3208C0.214233 34.0196 0.774045 34.586 1.46456 34.586C1.47583 34.586 1.48702 34.5859 1.49813 34.5856C1.49829 34.5856 1.49837 34.5857 1.49837 34.5858C1.49837 34.5859 1.49853 34.586 1.49861 34.586Z" fill="black"/>
<path id="Vector_5" d="M11.5402 32.0557C11.4648 32.0557 11.4037 32.1174 11.4037 32.1937V36.1577C11.4037 36.234 11.4648 36.2958 11.5402 36.2958H14.6971C14.7348 36.2958 14.7708 36.28 14.7966 36.2522L15.1917 35.8258C15.2735 35.7376 15.2117 35.5933 15.0922 35.5933H12.3359C12.2605 35.5933 12.1994 35.5315 12.1994 35.4552V32.1937C12.1994 32.1174 12.1383 32.0557 12.0629 32.0557H11.5402Z" fill="black"/>
<path id="Vector_6" fill-rule="evenodd" clip-rule="evenodd" d="M6.48369 32.0557C6.48346 32.0557 6.4833 32.0558 6.4833 32.056C6.4833 32.0562 6.48314 32.0564 6.48298 32.0564C6.07943 32.074 5.75548 32.4006 5.73802 32.8075C5.73802 32.8078 5.73786 32.8079 5.73762 32.8079C5.73754 32.8079 5.73746 32.808 5.73738 32.808C5.73731 32.8081 5.7373 32.8082 5.7373 32.8083V35.4748C5.7373 35.4749 5.73746 35.4751 5.73762 35.4751C5.73786 35.4751 5.73802 35.4752 5.73802 35.4755C5.73754 35.4867 5.7373 35.4979 5.7373 35.5093C5.7373 35.9321 6.06808 36.2769 6.48298 36.295C6.48314 36.295 6.4833 36.2952 6.4833 36.2954L6.48338 36.2956L6.48346 36.2957C6.48354 36.2958 6.48361 36.2958 6.48369 36.2958H9.34822C9.34838 36.2958 9.34862 36.2956 9.34862 36.2954V36.2952L9.34878 36.295H9.34894C9.76376 36.2769 10.0946 35.9321 10.0946 35.5093C10.0946 35.4979 10.0944 35.4867 10.0939 35.4755C10.0939 35.4752 10.0941 35.4751 10.0943 35.4751C10.0945 35.4751 10.0946 35.4749 10.0946 35.4748V32.8083C10.0946 32.8081 10.0945 32.8079 10.0942 32.8079C10.0941 32.8079 10.0939 32.8078 10.0939 32.8075C10.0764 32.4006 9.75241 32.074 9.34894 32.0564C9.34878 32.0564 9.34862 32.0562 9.34862 32.056C9.34862 32.0558 9.34838 32.0557 9.34822 32.0557H6.48369ZM7.01763 32.8079L7.01747 32.808L7.0174 32.8082C7.0174 32.8082 7.01732 32.8084 7.01716 32.8084C6.76503 32.8194 6.5625 33.025 6.55163 33.2809C6.55163 33.281 6.55147 33.2812 6.55139 33.2812C6.55123 33.2812 6.55115 33.2812 6.55115 33.2814V34.9587C6.55115 34.9588 6.55123 34.9588 6.55139 34.9588C6.55147 34.9588 6.55155 34.959 6.55155 34.9591C6.55131 34.9661 6.55115 34.9733 6.55115 34.9803C6.55115 35.2464 6.75789 35.4633 7.01716 35.4746C7.01732 35.4746 7.0174 35.4748 7.0174 35.4748L7.01747 35.475L7.01755 35.4751H7.01763H8.81428H8.81436L8.81444 35.475L8.81452 35.4748C8.81452 35.4748 8.8146 35.4746 8.81468 35.4746C9.07403 35.4633 9.28077 35.2464 9.28077 34.9803C9.28077 34.9733 9.28061 34.9661 9.28029 34.9591L9.28037 34.959L9.28053 34.9588C9.28069 34.9588 9.28077 34.9588 9.28077 34.9587V33.2814C9.28077 33.2812 9.28069 33.2812 9.28053 33.2812C9.28045 33.2812 9.28029 33.281 9.28029 33.2809C9.26942 33.025 9.06689 32.8194 8.81468 32.8084C8.8146 32.8084 8.81452 32.8082 8.81452 32.8082L8.81444 32.808L8.81436 32.8079H8.81428H7.01763Z" fill="black"/>
<path id="Vector_7" fill-rule="evenodd" clip-rule="evenodd" d="M19.7823 36.1577C19.7823 36.234 19.843 36.2958 19.9177 36.2958H20.4531C20.5278 36.2958 20.5885 36.234 20.5885 36.1577V32.8767C20.5885 32.8765 20.5883 32.8763 20.5881 32.8763L20.5879 32.8763L20.5878 32.8762C20.5878 32.8762 20.5878 32.876 20.5878 32.8759C20.5882 32.8647 20.5885 32.8535 20.5885 32.8421C20.5885 32.4193 20.2608 32.0745 19.8499 32.0564C19.8497 32.0564 19.8495 32.0562 19.8495 32.056C19.8495 32.0558 19.8494 32.0557 19.8491 32.0557H17.0991C17.0989 32.0557 17.0987 32.0558 17.0987 32.056C17.0987 32.0562 17.0986 32.0564 17.0984 32.0564C17.0874 32.0559 17.0763 32.0557 17.0652 32.0557C16.6385 32.0557 16.2927 32.4078 16.2927 32.8421C16.2927 32.8535 16.2929 32.8647 16.2934 32.8759C16.2934 32.8761 16.2932 32.8763 16.293 32.8763C16.2928 32.8763 16.2927 32.8765 16.2927 32.8767V36.1577C16.2927 36.234 16.3532 36.2958 16.428 36.2958H16.9634C17.0382 36.2958 17.0987 36.234 17.0987 36.1577V34.7925C17.0987 34.7162 17.1594 34.6544 17.2341 34.6544H19.647C19.7218 34.6544 19.7823 34.7162 19.7823 34.7925V36.1577ZM17.0987 33.9009V33.2182C17.0987 32.9539 17.3093 32.7395 17.569 32.7395H19.3121C19.5719 32.7395 19.7823 32.9539 19.7823 33.2182V33.9009C19.7823 33.9771 19.7218 34.0389 19.647 34.0389H17.2341C17.1594 34.0389 17.0987 33.9771 17.0987 33.9009Z" fill="black"/>
<path id="Vector_8" fill-rule="evenodd" clip-rule="evenodd" d="M31.0838 36.2958C31.0084 36.2958 30.9472 36.234 30.9472 36.1577V34.7925C30.9472 34.7162 30.886 34.6544 30.8105 34.6544H28.371C28.2955 34.6544 28.2343 34.7162 28.2343 34.7925V36.1577C28.2343 36.234 28.1732 36.2958 28.0977 36.2958H27.5571C27.4817 36.2958 27.4205 36.234 27.4205 36.1577V32.8767V32.8766L27.4206 32.8764C27.4206 32.8763 27.4207 32.8763 27.4209 32.8763C27.421 32.8763 27.4212 32.8761 27.4212 32.8759C27.4207 32.8647 27.4205 32.8535 27.4205 32.8421C27.4205 32.4078 27.7697 32.0557 28.2004 32.0557C28.2117 32.0557 28.2229 32.0559 28.234 32.0564C28.2342 32.0564 28.2343 32.0562 28.2343 32.056C28.2343 32.0558 28.2345 32.0557 28.2347 32.0557H31.0146C31.0149 32.0557 31.015 32.0558 31.015 32.056C31.015 32.0562 31.0152 32.0564 31.0154 32.0564C31.4303 32.0745 31.761 32.4193 31.761 32.8421C31.761 32.8535 31.7608 32.8647 31.7603 32.8759C31.7603 32.8761 31.7605 32.8763 31.7607 32.8763C31.7608 32.8763 31.7609 32.8763 31.761 32.8764C31.761 32.8765 31.761 32.8766 31.761 32.8767V36.1577C31.761 36.234 31.6999 36.2958 31.6245 36.2958H31.0838ZM28.2343 33.2182V33.9009C28.2343 33.9771 28.2955 34.0389 28.371 34.0389H30.8105C30.886 34.0389 30.9472 33.9771 30.9472 33.9009V33.2182C30.9472 32.9539 30.7347 32.7395 30.4725 32.7395H28.7091C28.4469 32.7395 28.2343 32.9539 28.2343 33.2182Z" fill="black"/>
<path id="Vector_9" d="M22.6036 32.0557C22.6433 32.0557 22.6809 32.0734 22.7066 32.1041L25.1078 34.9844C25.1895 35.082 25.3461 35.0231 25.3461 34.8948V32.1937C25.3461 32.1174 25.4067 32.0557 25.4815 32.0557H26.0169C26.0917 32.0557 26.1522 32.1174 26.1522 32.1937V36.1577C26.1522 36.234 26.0917 36.2958 26.0169 36.2958H25.3512C25.3484 36.2958 25.3461 36.2935 25.3461 36.2906C25.3461 36.2894 25.3457 36.2881 25.3449 36.2873L22.9034 33.4271C22.8211 33.331 22.666 33.3904 22.666 33.5179V36.1577C22.666 36.234 22.6055 36.2958 22.5307 36.2958H21.9919C21.9171 36.2958 21.8566 36.234 21.8566 36.1577V32.1937C21.8566 32.1174 21.9171 32.0557 21.9919 32.0557H22.6036Z" fill="black"/>
</g>
</g>
<defs>
<linearGradient id="paint0_linear_0_59" x1="21.5521" y1="-6.78459" x2="4.11922" y2="26.6064" gradientUnits="userSpaceOnUse">
<stop stop-color="#00FFA3"/>
<stop offset="1" stop-color="#DC1FFF"/>
</linearGradient>
<linearGradient id="paint1_linear_0_59" x1="21.5519" y1="-6.78464" x2="4.11903" y2="26.6064" gradientUnits="userSpaceOnUse">
<stop stop-color="#00FFA3"/>
<stop offset="1" stop-color="#DC1FFF"/>
</linearGradient>
<linearGradient id="paint2_linear_0_59" x1="21.5521" y1="-6.78453" x2="4.11921" y2="26.6065" gradientUnits="userSpaceOnUse">
<stop stop-color="#00FFA3"/>
<stop offset="1" stop-color="#DC1FFF"/>
</linearGradient>
</defs>
</svg>
