<svg width="38" height="37" viewBox="0 0 38 37" fill="none" xmlns="http://www.w3.org/2000/svg">
<g id="shiba-inu-shib-logo logo" clip-path="url(#clip0_0_71)">
<path id="Vector" d="M27.5453 3.35519C26.6208 4.27975 25.7737 5.28181 25.0208 6.35031L24.7827 6.2728C23.4097 5.82436 21.9869 5.54755 20.553 5.45343C20.1212 5.42022 18.5101 5.42022 17.9842 5.45343C16.3953 5.55862 15.1773 5.79668 13.7933 6.27833C13.7379 6.30048 13.6881 6.31709 13.6382 6.3337C12.8576 5.27074 11.9884 4.27421 11.0307 3.36073C15.6258 1.00782 21.0015 0.725472 25.8125 2.58012C26.3273 2.77389 26.8311 3.00087 27.3239 3.24447L27.5453 3.35519ZM36.1154 24.3542C35.4179 26.3417 34.3715 28.1853 33.0151 29.7908C32.2788 30.6545 31.465 31.4461 30.5903 32.1659C28.5418 33.8157 26.1502 34.9949 23.598 35.6149C20.7745 36.2959 17.8292 36.2959 15.0057 35.6149C12.4479 34.9949 10.0618 33.8157 8.01341 32.1659C7.13868 31.4461 6.32485 30.6545 5.58853 29.7908C1.68547 25.1791 0.500712 18.8456 2.48823 13.1378C2.86469 12.0803 3.33527 11.0617 3.89997 10.0928C4.16018 9.64991 4.48128 9.15165 4.63629 8.94681C5.16777 11.2333 5.82105 13.2429 6.06465 13.9682C6.04804 14.0069 6.02589 14.0512 6.00375 14.09C4.7138 16.7031 4.01623 19.2221 3.85015 21.9016C3.85015 21.9349 3.84461 21.9736 3.84461 22.0068C3.80032 22.8096 3.82246 23.1916 3.95533 23.6954C4.37055 25.2732 5.64943 27.0116 7.65355 28.7168C10.9366 31.507 15.3877 33.5222 18.7593 33.7548C22.2748 33.9928 27.4623 31.9389 30.9169 28.9382C31.4594 28.4566 31.9688 27.9472 32.4449 27.4047C32.7881 27.0061 33.2975 26.3196 33.2587 26.3196C33.2477 26.3196 33.2587 26.3085 33.2809 26.2974C33.2975 26.2864 33.3141 26.2697 33.303 26.2587C33.2975 26.2531 33.3086 26.2365 33.3252 26.231C33.3418 26.2255 33.3528 26.2144 33.3473 26.2033C33.3418 26.1922 33.3473 26.1812 33.3694 26.1756C33.3861 26.1701 33.3916 26.1535 33.3861 26.1424C33.3805 26.1313 33.3861 26.1203 33.3971 26.1203C33.4082 26.1203 33.4193 26.1037 33.4193 26.0926C33.4193 26.0815 33.4303 26.0649 33.4414 26.0649C33.4525 26.0649 33.4636 26.0538 33.4636 26.0428C33.4802 25.9985 33.5079 25.9542 33.5355 25.9154C33.6186 25.7881 33.9508 25.1957 33.995 25.0961C34.3106 24.3819 34.5099 23.7452 34.604 23.1085C34.6483 22.8041 34.676 22.2449 34.6539 22.112C34.6483 22.0899 34.6483 22.0511 34.6428 21.9902C34.6317 21.8795 34.6262 21.7134 34.6151 21.5473C34.604 21.2982 34.5819 20.9494 34.5653 20.7778C34.3272 18.2643 33.685 16.2104 32.467 14.0346C32.4172 13.9516 32.3729 13.8685 32.3452 13.8021C32.3342 13.7855 32.3286 13.7689 32.3231 13.7578C32.4947 13.2429 33.1978 11.0893 33.757 8.62571L33.7681 8.63678L33.8511 8.7475C33.995 8.94127 34.377 9.51704 34.5487 9.79386C35.3293 11.0672 35.9383 12.4346 36.3701 13.863C37.3722 17.301 37.2891 20.966 36.1154 24.3542Z" fill="#F00500"/>
<path id="Vector_2" d="M28.9294 17.7381C28.9128 17.8267 28.6526 18.0925 28.3924 18.2862C27.6284 18.8454 26.261 19.3658 24.8714 19.6149C24.0797 19.7589 23.288 19.781 23.0499 19.6647C22.8949 19.5872 22.8728 19.5263 22.9281 19.327C23.0444 18.9118 23.4209 18.4578 24.0077 18.0316C24.3067 17.8156 25.5191 17.0793 26.0838 16.7693C27.0139 16.26 27.7668 15.9555 28.2762 15.8835C28.4367 15.8613 28.6305 15.8558 28.6914 15.8835C28.791 15.9222 28.9018 16.2157 28.946 16.57C28.9682 16.7582 28.9571 17.5887 28.9294 17.7381ZM15.886 19.5706C15.8528 19.6371 15.6867 19.709 15.4985 19.7367C15.3102 19.7644 14.7345 19.7478 14.4078 19.709C13.2342 19.554 11.9885 19.1942 11.0806 18.7513C10.5712 18.5021 10.2058 18.253 9.93455 17.9817L9.77953 17.8212L9.76292 17.6108C9.73524 17.2454 9.74078 16.6696 9.78507 16.4648C9.81275 16.2932 9.87365 16.1271 9.95669 15.9776C10.001 15.9222 10.001 15.9222 10.2003 15.9222C10.4439 15.9222 10.6487 15.961 10.9809 16.0662C11.6619 16.2766 12.675 16.7859 13.9096 17.5278C14.9282 18.1367 15.3102 18.4357 15.6037 18.8454C15.803 19.1001 15.9358 19.4599 15.886 19.5706ZM23.7254 27.2771C23.7254 27.2937 23.6589 27.5594 23.5759 27.875C23.4928 28.1906 23.4264 28.4452 23.4264 28.4563C23.3655 28.4619 23.3101 28.4674 23.2492 28.4619H23.0721L22.8285 29.0376C22.6956 29.3532 22.5738 29.6466 22.5572 29.6909L22.524 29.7684L22.4077 29.5802L22.2915 29.3919V27.8584L22.2472 27.8695C22.1531 27.8916 21.4832 27.9802 21.1898 28.0079C19.9773 28.1297 18.7593 28.102 17.5524 27.9304C17.3587 27.9027 17.1926 27.8806 17.187 27.8861C17.1815 27.8916 17.187 28.2459 17.1981 28.6833L17.2147 29.4695L17.1206 29.6134C17.0708 29.6909 17.021 29.7573 17.021 29.7629C17.0043 29.7795 16.949 29.6909 16.8216 29.4362C16.6832 29.1705 16.5836 28.8881 16.5116 28.5947L16.4729 28.4342L16.3012 28.4452L16.1296 28.4619L16.0853 28.257C16.0632 28.1463 16.0355 27.9747 16.0244 27.8805L16.0078 27.7034L15.8639 27.5761C15.7808 27.5041 15.6978 27.4321 15.6812 27.421C15.6535 27.3989 15.6424 27.3601 15.6424 27.3269V27.2605L16.3345 27.266L17.0265 27.2716L17.0486 27.3435L17.0708 27.4155L17.3088 27.4266C17.4417 27.4321 17.8625 27.4432 18.2389 27.4543L18.931 27.4709L19.1081 27.1941L19.2908 26.9172H19.5233L19.5178 26.3415L19.5123 25.7657L19.2078 25.6328C18.2279 25.201 17.6521 24.7083 17.4362 24.1104C17.3919 23.9886 17.3919 23.9443 17.3808 23.3906C17.3753 22.8426 17.3753 22.7927 17.414 22.6709C17.4915 22.3941 17.7074 22.1782 17.9843 22.1062C18.0784 22.0786 18.3275 22.0786 19.6341 22.0786L21.1731 22.0841L21.3448 22.1671C21.5496 22.2668 21.6437 22.3388 21.76 22.4938C21.8929 22.6709 21.9316 22.8093 21.9316 23.1471C21.9316 23.6287 21.8984 24.0439 21.8486 24.21C21.7766 24.437 21.6659 24.6529 21.5275 24.8467C21.2507 25.201 20.7469 25.5553 20.2873 25.7159L20.1545 25.7657L20.16 26.347L20.1655 26.9283L20.2873 26.9394L20.4091 26.9505L20.5752 27.1996L20.7358 27.4487H21.4776C21.8873 27.4487 22.2472 27.4543 22.2804 27.4598C22.3358 27.4709 22.3468 27.4653 22.4022 27.3712L22.4686 27.2716H23.1053C23.5814 27.2494 23.7254 27.2605 23.7254 27.2771Z" fill="black"/>
<path id="Vector_3" d="M20.8023 28.8661C20.6971 28.927 20.6251 28.9547 20.6085 28.9436C20.5919 28.9381 20.5144 28.8716 20.4314 28.8107L20.2819 28.6889L20.1269 28.855C19.7892 29.2204 19.7781 29.237 19.6784 29.2426C19.5234 29.2592 19.4902 29.2315 19.302 28.9491C19.2023 28.8052 19.1248 28.6834 19.1248 28.6834C19.1248 28.6834 19.0528 28.6723 18.9698 28.6668L18.8148 28.6502L18.7428 28.7997L18.6708 28.9491L18.5435 28.9104C18.4438 28.8772 18.3442 28.8384 18.2501 28.7941L18.084 28.7111V28.3955L19.5566 28.401L21.0293 28.4066L21.0348 28.5561C21.0403 28.7332 21.0459 28.7277 20.8023 28.8661Z" fill="black"/>
<path id="Vector_4" d="M34.6429 22.1118C34.6374 22.0897 34.6374 22.0509 34.6318 21.99C33.3031 21.8461 29.5108 21.7575 25.9897 24.664C25.9897 24.664 24.8548 19.46 19.54 19.46C14.2252 19.46 12.2543 24.664 12.2543 24.664C9.2758 21.4585 5.2897 21.6911 3.85027 21.9014C3.85027 21.9347 3.84473 21.9734 3.84473 22.0066C3.80044 22.8094 3.82259 23.1914 3.95546 23.6952C4.37068 25.273 5.64955 27.0114 7.65368 28.7166C10.9367 31.5069 15.3878 33.522 18.7594 33.7546C22.2749 33.9926 27.4624 31.9387 30.917 28.938C31.4596 28.4564 31.9689 27.947 32.445 27.4045C32.7883 27.0059 33.2976 26.3194 33.2589 26.3194C33.2478 26.3194 33.2589 26.3083 33.281 26.2972C33.2976 26.2862 33.3142 26.2696 33.3031 26.2585C33.2976 26.2529 33.3087 26.2363 33.3253 26.2308C33.3419 26.2253 33.353 26.2142 33.3474 26.2031C33.3419 26.192 33.3474 26.181 33.3696 26.1754C33.3862 26.1699 33.3917 26.1533 33.3862 26.1422C33.3806 26.1311 33.3862 26.1201 33.3973 26.1201C33.4083 26.1201 33.4194 26.1035 33.4194 26.0924C33.4194 26.0813 33.4305 26.0647 33.4415 26.0647C33.4526 26.0647 33.4637 26.0536 33.4637 26.0426C33.4803 25.9983 33.508 25.954 33.5357 25.9152C33.6187 25.7879 33.9509 25.1955 33.9952 25.0959C34.3107 24.3817 34.51 23.745 34.6042 23.1084C34.6374 22.8039 34.6651 22.2447 34.6429 22.1118ZM20.8023 28.8661C20.6971 28.927 20.6251 28.9546 20.6085 28.9436C20.5919 28.938 20.5144 28.8716 20.4314 28.8107L20.2819 28.6889L20.1269 28.855C19.7891 29.2204 19.7781 29.237 19.6784 29.2425C19.5234 29.2591 19.4902 29.2314 19.302 28.9491C19.2023 28.8052 19.1248 28.6834 19.1248 28.6834C19.1248 28.6834 19.0528 28.6723 18.9698 28.6667L18.8148 28.6501L18.7428 28.7996L18.6708 28.9491L18.5435 28.9103C18.4438 28.8771 18.3442 28.8384 18.2501 28.7941L18.084 28.711V28.3955L19.5566 28.401L21.0293 28.4065L21.0348 28.556C21.0403 28.7332 21.0459 28.7276 20.8023 28.8661ZM23.5704 27.8695C23.4874 28.1851 23.4209 28.4398 23.4209 28.4508C23.36 28.4564 23.3047 28.4619 23.2438 28.4564H23.0666L22.8286 29.0377C22.6957 29.3532 22.5739 29.6467 22.5573 29.691L22.5241 29.7685L22.4078 29.5802L22.2915 29.392V27.8585L22.2472 27.8695C22.1531 27.8917 21.4832 27.9803 21.1898 28.0079C19.9774 28.1297 18.7594 28.1021 17.5525 27.9304C17.3587 27.9027 17.1926 27.8806 17.1871 27.8861C17.1816 27.8917 17.1871 28.246 17.1982 28.6834L17.2148 29.4695L17.1207 29.6134C17.0708 29.691 17.021 29.7574 17.021 29.7629C17.0044 29.7795 16.949 29.691 16.8217 29.4363C16.6833 29.1706 16.5837 28.8882 16.5117 28.5948L16.4729 28.4342L16.3013 28.4453L16.1297 28.4619L16.0854 28.2571C16.0632 28.1463 16.0356 27.9747 16.0245 27.8806L16.0079 27.7034L15.8639 27.5761C15.7809 27.5041 15.6979 27.4322 15.6812 27.4211C15.6536 27.3989 15.6425 27.3602 15.6425 27.327V27.2605L16.3345 27.2661L17.0266 27.2716L17.0487 27.3436L17.0708 27.4156L17.3089 27.4266C17.4418 27.4322 17.8625 27.4432 18.239 27.4543L18.931 27.4709L19.1082 27.1941L19.2909 26.9173H19.5234L19.5179 26.3415L19.5123 25.7658L19.2078 25.6329C18.2279 25.2011 17.6522 24.7083 17.4362 24.1104C17.3919 23.9886 17.3919 23.9443 17.3809 23.3907C17.3753 22.8426 17.3753 22.7928 17.4141 22.671C17.4916 22.3942 17.7075 22.1783 17.9843 22.1063C18.0784 22.0786 18.3276 22.0786 19.6341 22.0786L21.1732 22.0841L21.3448 22.1672C21.5497 22.2668 21.6438 22.3388 21.7601 22.4938C21.8929 22.671 21.9317 22.8094 21.9317 23.1471C21.9317 23.6288 21.8985 24.044 21.8486 24.2101C21.7767 24.4371 21.6659 24.653 21.5275 24.8467C21.2507 25.2011 20.7469 25.5554 20.2874 25.7159L20.1545 25.7658L20.1601 26.3471L20.1656 26.9284L20.2874 26.9394L20.4092 26.9505L20.5753 27.1996L20.7358 27.4488H21.4777C21.8874 27.4488 22.2472 27.4543 22.2805 27.4598C22.3358 27.4709 22.3469 27.4654 22.4023 27.3713L22.4687 27.2716H23.1054C23.5981 27.2716 23.742 27.2772 23.742 27.2938C23.7254 27.2882 23.6535 27.5595 23.5704 27.8695Z" fill="white"/>
<path id="Vector_5" d="M34.5988 21.5471C34.5877 21.2979 34.5655 20.9491 34.5489 20.7775C34.3109 18.2641 33.6687 16.2101 32.4507 14.0344C32.4009 13.9513 32.3566 13.8683 32.3289 13.8018C32.3178 13.7852 32.3123 13.7686 32.3067 13.7575C32.4784 13.2427 33.1815 11.0891 33.7406 8.62544C34.4991 5.28154 34.9808 1.37294 33.5081 0.199258C33.5081 0.199258 30.9614 0.0110254 27.5511 3.35492C26.6265 4.27948 25.7795 5.28154 25.0266 6.35004L24.7885 6.27253C23.4155 5.82409 21.9927 5.54728 20.5588 5.45316C20.127 5.41995 18.5159 5.41995 17.99 5.45316C16.4011 5.55835 15.1831 5.79641 13.799 6.27807C13.7437 6.30021 13.6939 6.31682 13.644 6.33343C12.8634 5.27047 11.9942 4.27394 11.0365 3.36046C7.48772 -4.71324e-05 4.84692 0.193722 4.84692 0.193722C3.2857 1.40616 3.81718 5.49192 4.62547 8.94654C5.15695 11.233 5.81023 13.2427 6.05383 13.9679C6.03722 14.0067 6.01507 14.051 5.99293 14.0897C4.70298 16.7028 4.00541 19.2218 3.83932 21.9014C5.28429 21.691 9.26485 21.4529 12.2489 24.664C12.2489 24.664 14.2198 19.4599 19.5346 19.4599C24.8494 19.4599 25.9843 24.664 25.9843 24.664C29.5054 21.7574 33.2977 21.8515 34.6264 21.99C34.6209 21.8792 34.6098 21.7131 34.5988 21.5471ZM7.10018 11.8808C7.10018 11.8808 5.02962 6.70436 5.5611 3.748C5.64968 3.24973 5.81577 2.81237 6.07597 2.48019C6.07597 2.48019 8.42334 2.71272 12.2101 6.92027C12.2101 6.92027 11.4904 7.26905 10.5271 8.01091C10.5271 8.01091 10.5216 8.01645 10.516 8.01645C9.4697 8.81921 8.12992 10.0925 7.10018 11.8808ZM15.8862 19.5706C15.853 19.637 15.6869 19.709 15.4987 19.7367C15.3104 19.7644 14.7347 19.7478 14.408 19.709C13.2343 19.554 11.9887 19.1941 11.0807 18.7512C10.5714 18.5021 10.206 18.253 9.93474 17.9817L9.77973 17.8212L9.76312 17.6108C9.73544 17.2454 9.74097 16.6696 9.78526 16.4648C9.81294 16.2931 9.87384 16.1271 9.95688 15.9776C10.0012 15.9222 10.0012 15.9222 10.2005 15.9222C10.4441 15.9222 10.6489 15.961 10.9811 16.0662C11.6621 16.2765 12.6752 16.7859 13.9098 17.5277C14.9284 18.1367 15.3104 18.4357 15.6039 18.8454C15.8032 19.1 15.936 19.4599 15.8862 19.5706ZM28.9296 17.7381C28.913 17.8267 28.6528 18.0924 28.3926 18.2862C27.6286 18.8454 26.2612 19.3658 24.8716 19.6149C24.0799 19.7588 23.2882 19.781 23.0501 19.6647C22.8951 19.5872 22.873 19.5263 22.9283 19.327C23.0446 18.9118 23.4211 18.4578 24.0079 18.0315C24.3069 17.8156 25.5193 17.0793 26.084 16.7693C27.0141 16.2599 27.767 15.9554 28.2763 15.8835C28.4369 15.8613 28.6307 15.8558 28.6916 15.8835C28.7912 15.9222 28.9019 16.2156 28.9462 16.57C28.9684 16.7582 28.9573 17.5886 28.9296 17.7381ZM28.0106 8.01091L27.9995 8.00538C27.0694 7.26352 26.3719 6.91473 26.3719 6.91473C30.0313 2.70718 32.2957 2.47466 32.2957 2.47466C32.5448 2.81237 32.7054 3.2442 32.7939 3.74246C33.3088 6.69882 31.3102 11.8808 31.3102 11.8808C30.4742 10.3915 29.3504 9.07387 28.0106 8.01091Z" fill="#FFA409"/>
<path id="Vector_6" d="M32.7994 3.74266C32.3676 3.68729 30.3247 3.67622 28.0105 8.01111L27.9995 8.00557C27.0694 7.26371 26.3718 6.91493 26.3718 6.91493C30.0313 2.70738 32.2956 2.47485 32.2956 2.47485C32.5503 2.81257 32.7108 3.24439 32.7994 3.74266Z" fill="#FF9300"/>
<path id="Vector_7" d="M31.3155 11.881C30.474 10.3862 29.3557 9.0741 28.0104 8.01114C30.3245 3.67625 32.3619 3.68732 32.7992 3.74269C33.3141 6.70458 31.3155 11.881 31.3155 11.881ZM32.8823 3.7593L32.7992 3.74269L32.8823 3.7593Z" fill="#FF8300"/>
<path id="Vector_8" d="M12.2099 6.91493C12.2099 6.91493 11.4902 7.26371 10.5269 8.00557C10.5269 8.00557 10.5213 8.01111 10.5158 8.01111C8.11861 3.67068 6.0093 3.68729 5.55533 3.74266C5.64391 3.24439 5.81 2.80703 6.0702 2.47485C6.07574 2.47485 8.42311 2.70738 12.2099 6.91493Z" fill="#FF9300"/>
<path id="Vector_9" d="M10.5214 8.01114C9.46956 8.81943 8.12978 10.0872 7.10004 11.881C7.10004 11.881 5.02948 6.70458 5.56096 3.74269C6.0094 3.68732 8.12425 3.67625 10.5214 8.01114ZM5.56096 3.74269C5.53328 3.74822 5.50006 3.75376 5.47238 3.7593L5.56096 3.74269Z" fill="#FF8300"/>
<path id="Vector_10" d="M25.7128 14.7544C25.7128 14.7544 23.9412 14.8651 24.1627 13.4811C24.3841 12.097 25.7682 11.9309 26.1557 11.9863C26.5433 12.0416 28.0934 12.5953 27.8166 13.7579C27.5398 14.9205 27.1523 14.699 26.9308 14.7544C26.7094 14.8098 25.7128 14.7544 25.7128 14.7544ZM12.6473 14.7544C12.6473 14.7544 10.8757 14.8651 11.0971 13.4811C11.3186 12.097 12.7026 11.9309 13.0902 11.9863C13.4777 12.0416 15.0279 12.5953 14.7511 13.7579C14.4742 14.9205 14.0867 14.699 13.8653 14.7544C13.6438 14.8098 12.6473 14.7544 12.6473 14.7544Z" fill="white"/>
</g>
<defs>
<clipPath id="clip0_0_71">
<rect width="37.698" height="36.2957" fill="white" transform="translate(0.0877075)"/>
</clipPath>
</defs>
</svg>
