<svg width="37" height="37" viewBox="0 0 37 37" fill="none" xmlns="http://www.w3.org/2000/svg">
<g id="usdt logo" clip-path="url(#clip0_0_86)">
<g id="Group">
<path id="Vector" d="M18.2451 36.2957C28.2679 36.2957 36.393 28.1706 36.393 18.1478C36.393 8.12506 28.2679 0 18.2451 0C8.22235 0 0.09729 8.12506 0.09729 18.1478C0.09729 28.1706 8.22235 36.2957 18.2451 36.2957Z" fill="#26A17B"/>
<path id="Vector_2" fill-rule="evenodd" clip-rule="evenodd" d="M20.4251 19.7165V19.7143C20.3003 19.7233 19.6572 19.7619 18.2224 19.7619C17.0768 19.7619 16.2703 19.7279 15.9868 19.7143V19.7177C11.5769 19.5237 8.28529 18.7558 8.28529 17.8371C8.28529 16.9195 11.5769 16.1516 15.9868 15.9542V18.9532C16.2749 18.9736 17.1006 19.0224 18.2416 19.0224C19.6107 19.0224 20.2969 18.9657 20.4251 18.9543V15.9565C24.8259 16.1527 28.1095 16.9206 28.1095 17.8371C28.1095 18.7558 24.8259 19.5214 20.4251 19.7165ZM20.4251 15.6446V12.961H26.5658V8.86865H9.846V12.961H15.9868V15.6435C10.9961 15.8726 7.24292 16.8616 7.24292 18.0458C7.24292 19.2299 10.9961 20.2179 15.9868 20.4481V29.0479H20.4251V20.4458C25.4078 20.2167 29.1519 19.2288 29.1519 18.0458C29.1519 16.8628 25.4078 15.8749 20.4251 15.6446Z" fill="white"/>
</g>
</g>
<defs>
<clipPath id="clip0_0_86">
<rect width="36.2957" height="36.2957" fill="white" transform="translate(0.09729)"/>
</clipPath>
</defs>
</svg>
